<?xml version="1.0" encoding="utf-8"?>
<!-- Generator: Adobe Illustrator 16.0.0, SVG Export Plug-In . SVG Version: 6.00 Build 0)  -->
<!DOCTYPE svg PUBLIC "-//W3C//DTD SVG 1.1//EN" "http://www.w3.org/Graphics/SVG/1.1/DTD/svg11.dtd">
<svg version="1.1" id="Capa_1" xmlns="http://www.w3.org/2000/svg" xmlns:xlink="http://www.w3.org/1999/xlink" x="0px" y="0px"
	 width="424px" height="110px" viewBox="0 0 424 110" enable-background="new 0 0 424 110" xml:space="preserve">
<g id="Nuevo_símbolo_3">
	<g>
		<g>
			<g>
				<defs>
					<polygon id="SVGID_1_" points="64.005,54.263 45.381,16.605 26.755,54.263 					"/>
				</defs>
				<clipPath id="SVGID_2_">
					<use xlink:href="#SVGID_1_"  overflow="visible"/>
				</clipPath>
				<g clip-path="url(#SVGID_2_)">
					<polygon fill="#C1272D" points="41.479,78.322 26.218,63.063 73.084,16.2 88.341,31.458 					"/>
				</g>
			</g>
			<g>
				<defs>
					<polygon id="SVGID_3_" points="64.005,54.263 45.381,16.605 26.755,54.263 					"/>
				</defs>
				<clipPath id="SVGID_4_">
					<use xlink:href="#SVGID_3_"  overflow="visible"/>
				</clipPath>
				<path clip-path="url(#SVGID_4_)" fill="#2362AD" d="M25.069,56.421c0,0,8.677-11.831,29.709-25.082L45.471,12.46L25.069,56.421z
					"/>
			</g>
			<g>
				<defs>
					<polygon id="SVGID_5_" points="64.005,54.263 45.381,16.605 26.755,54.263 					"/>
				</defs>
				<clipPath id="SVGID_6_">
					<use xlink:href="#SVGID_5_"  overflow="visible"/>
				</clipPath>
				<path clip-path="url(#SVGID_6_)" fill="#FCEE21" d="M25.069,55.159c0,0,11.62-16.617,28.447-24.609l2.366,5.206
					c0,0-7.257,5.521-10.412,19.614L25.069,55.159z"/>
			</g>
		</g>
		<path d="M67.466,61.388H23.294l-9.872,20.56H5.381L42.225,7.039c0.677-1.357,1.731-2.036,3.156-2.036
			c1.424,0,2.477,0.679,3.155,2.036l37.046,74.908h-7.836L67.466,61.388z M64.005,54.263L45.382,16.605L26.756,54.263H64.005z"/>
	</g>
	<g>
		<path d="M122.9,104.891h-3.191c-0.165,0-0.307-0.062-0.433-0.187c-0.121-0.121-0.185-0.266-0.185-0.431v-11.99
			c0-0.165,0.064-0.305,0.185-0.423c0.125-0.119,0.269-0.178,0.433-0.178h3.297c1.035,0,1.96,0.152,2.777,0.45
			c0.816,0.3,1.508,0.732,2.074,1.296c0.563,0.564,0.995,1.256,1.295,2.072c0.301,0.817,0.448,1.742,0.448,2.778
			c0,1.021-0.153,1.939-0.466,2.75c-0.311,0.812-0.758,1.504-1.339,2.081c-0.583,0.575-1.284,1.018-2.106,1.322
			C124.864,104.738,123.936,104.891,122.9,104.891z M120.327,103.656h2.574c1.751,0,3.101-0.468,4.046-1.4
			c0.947-0.938,1.42-2.261,1.42-3.977c0-1.753-0.458-3.087-1.374-4.003c-0.917-0.918-2.247-1.375-3.987-1.375h-2.68L120.327,103.656
			L120.327,103.656z"/>
		<path d="M153.571,91.683v13.208h-1.234V91.683H153.571z"/>
		<path d="M188.086,97.662v5.166c0,0.165-0.059,0.317-0.176,0.457c-1.197,1.142-2.826,1.712-4.884,1.712
			c-1.058,0-2-0.153-2.829-0.46c-0.829-0.306-1.532-0.746-2.107-1.323c-0.575-0.574-1.017-1.275-1.324-2.106
			c-0.305-0.828-0.457-1.771-0.457-2.829c0-1.047,0.151-1.987,0.457-2.821c0.307-0.835,0.749-1.539,1.324-2.116
			c0.576-0.577,1.28-1.018,2.107-1.322c0.828-0.306,1.771-0.459,2.829-0.459c1.764,0,3.217,0.43,4.355,1.286l-0.74,0.987
			c-0.928-0.694-2.133-1.04-3.616-1.04c-1.786,0-3.146,0.471-4.082,1.411c-0.935,0.94-1.401,2.298-1.401,4.073
			c0,1.786,0.466,3.15,1.401,4.092c0.936,0.939,2.296,1.41,4.082,1.41c1.61,0,2.885-0.407,3.828-1.216v-4.532L188.086,97.662z"/>
		<path d="M212.056,91.683v13.208h-1.234V91.683H212.056z"/>
		<path d="M244.348,91.683v1.219h-4.16v11.989h-1.234V92.901h-4.16v-1.219H244.348z"/>
		<path d="M277.839,101.329h-7.653l-1.708,3.562h-1.394l6.383-12.979c0.117-0.233,0.299-0.352,0.546-0.352s0.428,0.118,0.547,0.352
			l6.418,12.979h-1.357L277.839,101.329z M277.242,100.095l-3.229-6.525l-3.228,6.525H277.242z"/>
		<path d="M312.406,103.656l-0.37,1.234h-7.706c-0.164,0-0.309-0.062-0.432-0.187c-0.124-0.121-0.184-0.266-0.184-0.431V91.683
			h1.232v11.973L312.406,103.656L312.406,103.656z"/>
	</g>
	<path d="M143.647,81.947c-1.211,0-2.156-0.505-2.828-1.515L98.308,19.744v61.597H91.24V8.537c0-0.74,0.218-1.429,0.656-2.07
		c0.438-0.639,1.026-1.06,1.767-1.261c0.74-0.269,1.48-0.269,2.222,0c0.74,0.27,1.313,0.706,1.716,1.312l42.612,60.789V5.71h6.968
		v72.703c0,0.808-0.22,1.515-0.657,2.121c-0.439,0.605-1.027,1.043-1.768,1.313C144.487,81.912,144.117,81.947,143.647,81.947z"/>
	<path d="M220.291,39.94v29.586c0,0.943-0.338,1.817-1.011,2.625c-6.865,6.531-16.189,9.796-27.968,9.796
		c-6.06,0-11.461-0.874-16.207-2.625c-4.748-1.75-8.77-4.274-12.068-7.574c-3.299-3.297-5.823-7.32-7.573-12.066
		c-1.75-4.746-2.625-10.148-2.625-16.207c0-5.991,0.875-11.376,2.625-16.156c1.75-4.779,4.274-8.819,7.573-12.118
		c3.298-3.298,7.32-5.822,12.068-7.573c4.745-1.75,10.146-2.625,16.207-2.625c10.096,0,18.41,2.458,24.94,7.371l-4.241,5.656
		c-5.318-3.972-12.219-5.958-20.699-5.958c-10.234,0-18.025,2.693-23.378,8.078c-5.351,5.386-8.027,13.161-8.027,23.326
		c0,10.233,2.676,18.042,8.027,23.427c5.353,5.388,13.144,8.078,23.378,8.078c9.22,0,16.524-2.322,21.911-6.968V42.062
		L220.291,39.94z"/>
	<path d="M280.578,5.709v55.335c0,6.598-2.407,11.73-7.22,15.398c-4.813,3.67-11.528,5.504-20.146,5.504s-15.314-1.834-20.095-5.504
		c-4.779-3.668-7.169-8.801-7.169-15.398V5.709h7.069v55.335c0,3.029,0.69,5.453,2.067,7.271c1.38,1.816,3.098,3.229,5.151,4.241
		c2.053,1.009,4.257,1.665,6.614,1.968c2.356,0.303,4.477,0.455,6.361,0.455c1.883,0,4.005-0.152,6.361-0.455
		s4.56-0.959,6.614-1.968c2.053-1.012,3.787-2.425,5.2-4.241c1.414-1.818,2.122-4.242,2.122-7.271V5.709H280.578z"/>
	<path d="M336.017,74.272l-2.12,7.069H289.77c-0.943,0-1.769-0.354-2.474-1.062c-0.708-0.706-1.061-1.53-1.061-2.474V5.709h7.066
		v68.563H336.017L336.017,74.272z"/>
	<path d="M380.147,81.947c-6.059,0-11.461-0.874-16.206-2.625c-4.748-1.75-8.77-4.274-12.068-7.574
		c-3.3-3.297-5.822-7.32-7.573-12.066s-2.625-10.148-2.625-16.207c0-5.991,0.874-11.376,2.625-16.156
		c1.751-4.779,4.273-8.819,7.573-12.118c3.299-3.298,7.32-5.822,12.068-7.573c4.745-1.75,10.147-2.625,16.206-2.625
		s11.461,0.875,16.207,2.625c4.746,1.751,8.766,4.276,12.066,7.573c3.298,3.298,5.821,7.339,7.572,12.118
		c1.749,4.78,2.626,10.165,2.626,16.156c0,6.058-0.877,11.46-2.626,16.207c-1.751,4.746-4.275,8.77-7.572,12.066
		c-3.3,3.3-7.32,5.824-12.066,7.574C391.608,81.073,386.206,81.947,380.147,81.947z M380.147,12.071
		c-10.233,0-18.025,2.692-23.378,8.078c-5.351,5.387-8.027,13.161-8.027,23.326c0,10.233,2.677,18.042,8.027,23.426
		c5.353,5.388,13.145,8.078,23.378,8.078c10.231,0,18.024-2.69,23.377-8.078c5.35-5.385,8.026-13.193,8.026-23.426
		c0-10.165-2.677-17.939-8.026-23.326C398.172,14.765,390.379,12.071,380.147,12.071z"/>
</g>
<g id="Nuevo_símbolo_2_">
	<g id="Nuevo_símbolo_29_2_">
		<g id="Nuevo_símbolo_10_2_">
		</g>
	</g>
</g>
<g id="Nuevo_símbolo_1_">
	<g id="Nuevo_símbolo_29_1_">
		<g id="Nuevo_símbolo_10_1_">
		</g>
	</g>
</g>
<g id="Nuevo_símbolo">
	<g id="Nuevo_símbolo_29">
		<g id="Nuevo_símbolo_10">
		</g>
	</g>
</g>
</svg>
